<svg xmlns="http://www.w3.org/2000/svg" width="900" height="690" viewBox="0 0 900 690" role="img" aria-label="Technology arsenal for Amirreza Kamali"><defs><linearGradient id="shell" x1="0" y1="0" x2="1" y2="1"><stop stop-color="#0b625b"/><stop offset=".55" stop-color="#0c3b3d"/><stop offset="1" stop-color="#2d4f88"/></linearGradient><linearGradient id="sheen" x1="0" y1="0" x2="1" y2="0"><stop stop-color="#43ead3" stop-opacity="0"/><stop offset=".5" stop-color="#43ead3" stop-opacity=".55"/><stop offset="1" stop-color="#43ead3" stop-opacity="0"/></linearGradient><radialGradient id="aura"><stop stop-color="#43ead3" stop-opacity=".2"/><stop offset="1" stop-color="#43ead3" stop-opacity="0"/></radialGradient><!-- Technology arsenal for Amirreza Kamali --><style>.title{font:700 22px 'Trebuchet MS','Segoe UI',Verdana,sans-serif;fill:#dcfff7}.display{font:700 28px 'Trebuchet MS','Segoe UI',Verdana,sans-serif;fill:#dcfff7}.label{font:700 9px 'Trebuchet MS','Segoe UI',Verdana,sans-serif;fill:#43ead3;letter-spacing:1.6px}.sub{font:700 9px 'Trebuchet MS','Segoe UI',Verdana,sans-serif;fill:#79aaa4;letter-spacing:1.4px}.body{font:11px 'Trebuchet MS','Segoe UI',Verdana,sans-serif;fill:#79aaa4}.mono{font:10px ui-monospace,Consolas,monospace;fill:#79aaa4}.chip{font:700 8px 'Trebuchet MS','Segoe UI',Verdana,sans-serif;fill:#dcfff7}.rise{animation:rise .6s cubic-bezier(.32,.72,0,1) both}.fade{animation:fade .7s ease both}.bar{transform-origin:left;animation:grow .9s cubic-bezier(.32,.72,0,1) both}.pulse{animation:pulse 3.2s ease-in-out infinite}@keyframes rise{from{opacity:0;transform:translateY(10px)}to{opacity:1;transform:translateY(0)}}@keyframes fade{from{opacity:0}to{opacity:1}}@keyframes grow{from{transform:scaleX(0)}to{transform:scaleX(1)}}@keyframes pulse{0%,100%{opacity:.35}50%{opacity:1}}@media(prefers-reduced-motion:reduce){*{animation:none!important}}.skill{font:700 11px 'Trebuchet MS','Segoe UI',Verdana,sans-serif;fill:#dcfff7}.pct{font:700 9px ui-monospace,Consolas,monospace}</style></defs><rect width="900" height="690" rx="24" fill="#0b1d20"/><rect x="6" y="6" width="888" height="678" rx="20" fill="url(#shell)" stroke="#168f82"/><rect x="22" y="22" width="856" height="646" rx="18" fill="#0a2928" stroke="#1ca596"/><text x="46" y="58" class="title">Arsenal</text><text x="47" y="76" class="label">TOOLING GROUPED BY DOMAIN · SELF-ASSESSED DEPTH</text><rect x="46" y="86" width="808" height="1" fill="url(#sheen)"/><text x="854" y="56" text-anchor="end" class="label">&gt; STACK.MAP</text><g transform="translate(42 100)"><g class="rise" style="animation-delay:0.00s"><rect width="400" height="170" rx="18" fill="#0b2227" stroke="#1ca596" stroke-opacity=".6"/><rect width="4" height="170" rx="2" fill="#f2dc56" opacity=".85"/><text x="18" y="28" class="label" fill="#f2dc56">LANGUAGES</text><circle cx="378" cy="23" r="4" fill="#f2dc56" class="pulse"/><rect x="18" y="36" width="364" height="1" fill="#1ca596" opacity=".25"/><text x="18" y="52" class="skill">Python</text><rect x="150" y="43" width="190" height="8" rx="4" fill="#203b40"/><rect x="150" y="43" width="180" height="8" rx="4" fill="#f2dc56" class="bar" style="animation-delay:0.00s"/><text x="384" y="52" text-anchor="end" class="pct" fill="#f2dc56">95</text><text x="18" y="75" class="skill">C++</text><rect x="150" y="66" width="190" height="8" rx="4" fill="#203b40"/><rect x="150" y="66" width="133" height="8" rx="4" fill="#f2dc56" class="bar" style="animation-delay:0.06s"/><text x="384" y="75" text-anchor="end" class="pct" fill="#f2dc56">70</text><text x="18" y="98" class="skill">Dart</text><rect x="150" y="89" width="190" height="8" rx="4" fill="#203b40"/><rect x="150" y="89" width="118" height="8" rx="4" fill="#f2dc56" class="bar" style="animation-delay:0.12s"/><text x="384" y="98" text-anchor="end" class="pct" fill="#f2dc56">62</text><text x="18" y="121" class="skill">SQL</text><rect x="150" y="112" width="190" height="8" rx="4" fill="#203b40"/><rect x="150" y="112" width="152" height="8" rx="4" fill="#f2dc56" class="bar" style="animation-delay:0.18s"/><text x="384" y="121" text-anchor="end" class="pct" fill="#f2dc56">80</text><text x="18" y="144" class="skill">VHDL</text><rect x="150" y="135" width="190" height="8" rx="4" fill="#203b40"/><rect x="150" y="135" width="125" height="8" rx="4" fill="#f2dc56" class="bar" style="animation-delay:0.24s"/><text x="384" y="144" text-anchor="end" class="pct" fill="#f2dc56">66</text></g></g><g transform="translate(458 100)"><g class="rise" style="animation-delay:0.09s"><rect width="400" height="170" rx="18" fill="#0b2227" stroke="#1ca596" stroke-opacity=".6"/><rect width="4" height="170" rx="2" fill="#43ead3" opacity=".85"/><text x="18" y="28" class="label" fill="#43ead3">BACKEND</text><circle cx="378" cy="23" r="4" fill="#43ead3" class="pulse"/><rect x="18" y="36" width="364" height="1" fill="#1ca596" opacity=".25"/><text x="18" y="52" class="skill">Django</text><rect x="150" y="43" width="190" height="8" rx="4" fill="#203b40"/><rect x="150" y="43" width="177" height="8" rx="4" fill="#43ead3" class="bar" style="animation-delay:0.09s"/><text x="384" y="52" text-anchor="end" class="pct" fill="#43ead3">93</text><text x="18" y="75" class="skill">DRF</text><rect x="150" y="66" width="190" height="8" rx="4" fill="#203b40"/><rect x="150" y="66" width="171" height="8" rx="4" fill="#43ead3" class="bar" style="animation-delay:0.15s"/><text x="384" y="75" text-anchor="end" class="pct" fill="#43ead3">90</text><text x="18" y="98" class="skill">FastAPI</text><rect x="150" y="89" width="190" height="8" rx="4" fill="#203b40"/><rect x="150" y="89" width="167" height="8" rx="4" fill="#43ead3" class="bar" style="animation-delay:0.21s"/><text x="384" y="98" text-anchor="end" class="pct" fill="#43ead3">88</text><text x="18" y="121" class="skill">PostgreSQL</text><rect x="150" y="112" width="190" height="8" rx="4" fill="#203b40"/><rect x="150" y="112" width="156" height="8" rx="4" fill="#43ead3" class="bar" style="animation-delay:0.27s"/><text x="384" y="121" text-anchor="end" class="pct" fill="#43ead3">82</text><text x="18" y="144" class="skill">Redis</text><rect x="150" y="135" width="190" height="8" rx="4" fill="#203b40"/><rect x="150" y="135" width="144" height="8" rx="4" fill="#43ead3" class="bar" style="animation-delay:0.33s"/><text x="384" y="144" text-anchor="end" class="pct" fill="#43ead3">76</text></g></g><g transform="translate(42 286)"><g class="rise" style="animation-delay:0.18s"><rect width="400" height="170" rx="18" fill="#0b2227" stroke="#1ca596" stroke-opacity=".6"/><rect width="4" height="170" rx="2" fill="#9b6cff" opacity=".85"/><text x="18" y="28" class="label" fill="#9b6cff">AI / ML</text><circle cx="378" cy="23" r="4" fill="#9b6cff" class="pulse"/><rect x="18" y="36" width="364" height="1" fill="#1ca596" opacity=".25"/><text x="18" y="52" class="skill">LangChain</text><rect x="150" y="43" width="190" height="8" rx="4" fill="#203b40"/><rect x="150" y="43" width="163" height="8" rx="4" fill="#9b6cff" class="bar" style="animation-delay:0.18s"/><text x="384" y="52" text-anchor="end" class="pct" fill="#9b6cff">86</text><text x="18" y="75" class="skill">OpenAI API</text><rect x="150" y="66" width="190" height="8" rx="4" fill="#203b40"/><rect x="150" y="66" width="171" height="8" rx="4" fill="#9b6cff" class="bar" style="animation-delay:0.24s"/><text x="384" y="75" text-anchor="end" class="pct" fill="#9b6cff">90</text><text x="18" y="98" class="skill">PyTorch</text><rect x="150" y="89" width="190" height="8" rx="4" fill="#203b40"/><rect x="150" y="89" width="137" height="8" rx="4" fill="#9b6cff" class="bar" style="animation-delay:0.30s"/><text x="384" y="98" text-anchor="end" class="pct" fill="#9b6cff">72</text><text x="18" y="121" class="skill">TensorFlow</text><rect x="150" y="112" width="190" height="8" rx="4" fill="#203b40"/><rect x="150" y="112" width="125" height="8" rx="4" fill="#9b6cff" class="bar" style="animation-delay:0.36s"/><text x="384" y="121" text-anchor="end" class="pct" fill="#9b6cff">66</text><text x="18" y="144" class="skill">AI Agents</text><rect x="150" y="135" width="190" height="8" rx="4" fill="#203b40"/><rect x="150" y="135" width="167" height="8" rx="4" fill="#9b6cff" class="bar" style="animation-delay:0.42s"/><text x="384" y="144" text-anchor="end" class="pct" fill="#9b6cff">88</text></g></g><g transform="translate(458 286)"><g class="rise" style="animation-delay:0.27s"><rect width="400" height="170" rx="18" fill="#0b2227" stroke="#1ca596" stroke-opacity=".6"/><rect width="4" height="170" rx="2" fill="#4387ff" opacity=".85"/><text x="18" y="28" class="label" fill="#4387ff">FRONTEND</text><circle cx="378" cy="23" r="4" fill="#4387ff" class="pulse"/><rect x="18" y="36" width="364" height="1" fill="#1ca596" opacity=".25"/><text x="18" y="52" class="skill">Next.js</text><rect x="150" y="43" width="190" height="8" rx="4" fill="#203b40"/><rect x="150" y="43" width="160" height="8" rx="4" fill="#4387ff" class="bar" style="animation-delay:0.27s"/><text x="384" y="52" text-anchor="end" class="pct" fill="#4387ff">84</text><text x="18" y="75" class="skill">Node.js</text><rect x="150" y="66" width="190" height="8" rx="4" fill="#203b40"/><rect x="150" y="66" width="141" height="8" rx="4" fill="#4387ff" class="bar" style="animation-delay:0.33s"/><text x="384" y="75" text-anchor="end" class="pct" fill="#4387ff">74</text><text x="18" y="98" class="skill">Flutter</text><rect x="150" y="89" width="190" height="8" rx="4" fill="#203b40"/><rect x="150" y="89" width="122" height="8" rx="4" fill="#4387ff" class="bar" style="animation-delay:0.39s"/><text x="384" y="98" text-anchor="end" class="pct" fill="#4387ff">64</text><text x="18" y="121" class="skill">Prisma</text><rect x="150" y="112" width="190" height="8" rx="4" fill="#203b40"/><rect x="150" y="112" width="133" height="8" rx="4" fill="#4387ff" class="bar" style="animation-delay:0.45s"/><text x="384" y="121" text-anchor="end" class="pct" fill="#4387ff">70</text></g></g><g transform="translate(42 472)"><g class="rise" style="animation-delay:0.36s"><rect width="400" height="170" rx="18" fill="#0b2227" stroke="#1ca596" stroke-opacity=".6"/><rect width="4" height="170" rx="2" fill="#56f73a" opacity=".85"/><text x="18" y="28" class="label" fill="#56f73a">PLATFORM</text><circle cx="378" cy="23" r="4" fill="#56f73a" class="pulse"/><rect x="18" y="36" width="364" height="1" fill="#1ca596" opacity=".25"/><text x="18" y="52" class="skill">Docker</text><rect x="150" y="43" width="190" height="8" rx="4" fill="#203b40"/><rect x="150" y="43" width="162" height="8" rx="4" fill="#56f73a" class="bar" style="animation-delay:0.36s"/><text x="384" y="52" text-anchor="end" class="pct" fill="#56f73a">85</text><text x="18" y="75" class="skill">Linux</text><rect x="150" y="66" width="190" height="8" rx="4" fill="#203b40"/><rect x="150" y="66" width="167" height="8" rx="4" fill="#56f73a" class="bar" style="animation-delay:0.42s"/><text x="384" y="75" text-anchor="end" class="pct" fill="#56f73a">88</text><text x="18" y="98" class="skill">Git / CI</text><rect x="150" y="89" width="190" height="8" rx="4" fill="#203b40"/><rect x="150" y="89" width="163" height="8" rx="4" fill="#56f73a" class="bar" style="animation-delay:0.48s"/><text x="384" y="98" text-anchor="end" class="pct" fill="#56f73a">86</text><text x="18" y="121" class="skill">Bash</text><rect x="150" y="112" width="190" height="8" rx="4" fill="#203b40"/><rect x="150" y="112" width="152" height="8" rx="4" fill="#56f73a" class="bar" style="animation-delay:0.54s"/><text x="384" y="121" text-anchor="end" class="pct" fill="#56f73a">80</text><text x="18" y="144" class="skill">Server Admin</text><rect x="150" y="135" width="190" height="8" rx="4" fill="#203b40"/><rect x="150" y="135" width="148" height="8" rx="4" fill="#56f73a" class="bar" style="animation-delay:0.60s"/><text x="384" y="144" text-anchor="end" class="pct" fill="#56f73a">78</text></g></g><g transform="translate(458 472)"><g class="rise" style="animation-delay:0.45s"><rect width="400" height="170" rx="18" fill="#0b2227" stroke="#1ca596" stroke-opacity=".6"/><rect width="4" height="170" rx="2" fill="#ff6b48" opacity=".85"/><text x="18" y="28" class="label" fill="#ff6b48">HARDWARE</text><circle cx="378" cy="23" r="4" fill="#ff6b48" class="pulse"/><rect x="18" y="36" width="364" height="1" fill="#1ca596" opacity=".25"/><text x="18" y="52" class="skill">FPGA</text><rect x="150" y="43" width="190" height="8" rx="4" fill="#203b40"/><rect x="150" y="43" width="129" height="8" rx="4" fill="#ff6b48" class="bar" style="animation-delay:0.45s"/><text x="384" y="52" text-anchor="end" class="pct" fill="#ff6b48">68</text><text x="18" y="75" class="skill">Xilinx ISE</text><rect x="150" y="66" width="190" height="8" rx="4" fill="#203b40"/><rect x="150" y="66" width="122" height="8" rx="4" fill="#ff6b48" class="bar" style="animation-delay:0.51s"/><text x="384" y="75" text-anchor="end" class="pct" fill="#ff6b48">64</text><text x="18" y="98" class="skill">Vivado</text><rect x="150" y="89" width="190" height="8" rx="4" fill="#203b40"/><rect x="150" y="89" width="114" height="8" rx="4" fill="#ff6b48" class="bar" style="animation-delay:0.57s"/><text x="384" y="98" text-anchor="end" class="pct" fill="#ff6b48">60</text></g></g><text x="46" y="662" class="mono">B.Sc. Computer Engineering · Quchan University of Tec…</text><text x="854" y="662" text-anchor="end" class="mono">Backend Developer · AI Integration Specialist</text></svg>